<svg width="6" height="6" viewBox="0 0 6 6" fill="none" xmlns="http://www.w3.org/2000/svg">
<path d="M0 0.5C0 0.223858 0.223858 0 0.5 0H5.5C5.77614 0 6 0.223858 6 0.5V5.5C6 5.77614 5.77614 6 5.5 6H0.5C0.223858 6 0 5.77614 0 5.5V0.5Z" fill="#1BADFF"/>
<path d="M2.10653 3.19851V2.81818H3.89844V3.19851H3.23047V5H2.7745V3.19851H2.10653ZM5.37713 3.44567C5.36861 3.35973 5.33203 3.29297 5.2674 3.24538C5.20277 3.1978 5.11506 3.17401 5.00426 3.17401C4.92898 3.17401 4.86541 3.18466 4.81357 3.20597C4.76172 3.22656 4.72195 3.25533 4.69425 3.29226C4.66726 3.32919 4.65376 3.37109 4.65376 3.41797C4.65234 3.45703 4.66051 3.49112 4.67827 3.52024C4.69673 3.54936 4.72195 3.57457 4.75391 3.59588C4.78587 3.61648 4.8228 3.63459 4.8647 3.65021C4.90661 3.66513 4.95135 3.67791 4.99893 3.68857L5.19496 3.73544C5.29013 3.75675 5.37749 3.78516 5.45703 3.82067C5.53658 3.85618 5.60547 3.89986 5.66371 3.9517C5.72195 4.00355 5.76705 4.06463 5.79901 4.13494C5.83168 4.20526 5.84837 4.28587 5.84908 4.37678C5.84837 4.5103 5.81428 4.62607 5.7468 4.72408C5.68004 4.82138 5.58345 4.89702 5.45703 4.95099C5.33132 5.00426 5.17969 5.03089 5.00213 5.03089C4.82599 5.03089 4.67259 5.00391 4.5419 4.94993C4.41193 4.89595 4.31037 4.81605 4.23722 4.71023C4.16477 4.60369 4.12678 4.47195 4.12322 4.31499H4.5696C4.57457 4.38814 4.59553 4.44922 4.63246 4.49822C4.6701 4.54652 4.72017 4.5831 4.78267 4.60795C4.84588 4.6321 4.91726 4.64418 4.9968 4.64418C5.07493 4.64418 5.14276 4.63281 5.20028 4.61009C5.25852 4.58736 5.30362 4.55575 5.33558 4.51527C5.36754 4.47479 5.38352 4.42827 5.38352 4.37571C5.38352 4.3267 5.36896 4.28551 5.33984 4.25213C5.31143 4.21875 5.26953 4.19034 5.21413 4.1669C5.15945 4.14347 5.09233 4.12216 5.01278 4.10298L4.77521 4.04332C4.59126 3.99858 4.44602 3.92862 4.33949 3.83345C4.23295 3.73828 4.18004 3.61009 4.18075 3.44886C4.18004 3.31676 4.2152 3.20135 4.28622 3.10263C4.35795 3.00391 4.45632 2.92685 4.58132 2.87145C4.70632 2.81605 4.84837 2.78835 5.00746 2.78835C5.16939 2.78835 5.31072 2.81605 5.43146 2.87145C5.55291 2.92685 5.64737 3.00391 5.71484 3.10263C5.78232 3.20135 5.81712 3.3157 5.81925 3.44567H5.37713Z" fill="#FFFCFC"/>
</svg>
